# xmcd CD database file
#
# Track frame offsets:
#	150
#	14025
#	29550
#	49800
#	68100
#	91275
#	107775
#	125700
#	139950
#	159937
#	181237
#	205200
#	225600
#	247912
#	272700
#	293587
#
# Disc length: 4202 seconds
#
# Revision: 0
# Processed by: cddbd v1.5.1PL2 Copyright (c) Steve Scherf et al.
# Submitted via: CDex 1.51
#
DISCID=e6106810
DTITLE=Various Artist - Sound Cruising 6 Peppermint Shower
DYEAR=1992
DGENRE=Rock
TTITLE0=プロミセス／エリック・クラプトン
TTITLE1=シャウト・ザ・トップ／ザ・スタイル・カウンシル
TTITLE2=ナイト・バーズ／シャカタク
TTITLE3=レッスンズ・イン・ラヴ／レヴェル42
TTITLE4=アイ・ライク・イット／DINO
TTITLE5=ドント・ルック・バック／ファイン・ヤング・カニバルズ
TTITLE6=愛の砦／サード・ワールド
TTITLE7=ザ・ハーダー・ゼイ・カム／ジミー・クリフ
TTITLE8=アイ・ショット・ザ・シェリフ／エリック・クラプトン
TTITLE9=ｈｒヴン・ッヘルプ・ミー／デオン・エスタス
TTITLE10=スウィート・ハートエイク／ヴィクター・ラズロ
TTITLE11=ステイ・ウィズ・ミー／ボビー・コールドウェル
TTITLE12=失われた愛の世界／ビージーズ
TTITLE13=ドリーミン／ヴァネッサ・ウィリアムス
TTITLE14=ユー・アー・ザ・ベスト／ザ・スタイル・カウンシル
TTITLE15=ハート・オブ・マイン／ボビー・コールドウェル
EXTD=YEAR: 1992
EXTT0=
EXTT1=
EXTT2=
EXTT3=
EXTT4=
EXTT5=
EXTT6=
EXTT7=
EXTT8=
EXTT9=
EXTT10=
EXTT11=
EXTT12=
EXTT13=
EXTT14=
EXTT15=
PLAYORDER=
